# xmcd
#
# Track frame offsets:
#	151
#	22955
#	61904
#	81903
#	96416
#	114592
#	134623
#	155446
#	173253
#	186082
#	203780
#	224219
#	235712
#	250037
#	271148
#	283893
#	300165
#	311557
#
# Disc length: 4469 seconds
#
# Revision: 0
# Processed by: cddbd v1.5.2PL0 Copyright (c) Steve Scherf et al.
# Submitted via: MusicManager 7.3.0.0 
#
DISCID=f7117312
DTITLE=Various Artist - WHILE MY GUITAR GENTLY WEEPS CD.2
DYEAR=1900
DGENRE=blues
TTITLE0=ROBERT PLANT - BIG LOG
TTITLE1=PRINCE - PURPLE RAIN
TTITLE2=CHRIS REA - THE ROAD TO HELL {Pt2 }
TTITLE3=GARY MOORE - PARISIENNE WALKWAYS
TTITLE4=THE ALLMAN BROTHERS BAND - JESSICA
TTITLE5=MATHEW'S SOTHERN COMFORT - WOODSTOCK
TTITLE6=LYNYRD SKYNYRD - SWEET HOME ALABAMA
TTITLE7=JOE WALSH - TURN TO STONE
TTITLE8=FLEETWOOD MAC - BLACK MAGIC WOMAN
TTITLE9=TOTO - HOLD THE LINE
TTITLE10=BOSTON - MORE THAN A FEELING
TTITLE11=STEVE EARLE - GUITAR TOWN
TTITLE12=ROBERT PALMER - BAD CASE OF LOVING YOU { DOCTOR DOCTOR }
TTITLE13=WISHBONE ASH - JAIL BAIT 
TTITLE14=J.J. CALE - COCAINE
TTITLE15=JUSTIN HAYWARD and JOHN LODGE - BLUE GUITAR 
TTITLE16=MARK KNOPFLER - GOING HOME
TTITLE17=THIN LIZZY - WHISKY IN THE JAR
EXTD=
EXTT0=
EXTT1=
EXTT2=
EXTT3=
EXTT4=
EXTT5=
EXTT6=
EXTT7=
EXTT8=
EXTT9=
EXTT10=
EXTT11=
EXTT12=
EXTT13=
EXTT14=
EXTT15=
EXTT16=
EXTT17=
PLAYORDER=
